/* XPM */
static char *_b5aa9758ab94405dd4373b30f023474[] = {
/* columns rows colors chars-per-pixel */
"32 32 256 2 ",
"   c #A56616",
".  c #B0701B",
"X  c #A76D25",
"o  c #A97C2B",
"O  c #B67C27",
"+  c #CA7807",
"@  c #D17A0E",
"#  c #CC6F10",
"$  c #C57E1C",
"%  c #CB7C1A",
"&  c #D37D16",
"*  c #AC812C",
"=  c #BD832C",
"-  c #B78931",
";  c #DC8C0D",
":  c #D78207",
">  c #CD821E",
",  c #D48314",
"<  c #DC8C16",
"1  c #D2841D",
"2  c #D58C1E",
"3  c #DA8D1D",
"4  c #D48817",
"5  c #D5921C",
"6  c #DC941F",
"7  c #DF9C1F",
"8  c #E5950B",
"9  c #E1951C",
"0  c #E49B1E",
"q  c #E39113",
"w  c #E7A21C",
"e  c #EDA41D",
"r  c #E7A819",
"t  c #E6A115",
"y  c #F5AC1F",
"u  c #EDB41A",
"i  c #F8B718",
"p  c #FDB81C",
"a  c #CC8A23",
"s  c #D58521",
"d  c #D58B22",
"f  c #DB8E21",
"g  c #D58F2C",
"h  c #CC972C",
"j  c #D79120",
"k  c #DD9322",
"l  c #DD9923",
"z  c #DB932B",
"x  c #D3972B",
"c  c #C78A35",
"v  c #C38D3E",
"b  c #C6943A",
"n  c #CA9238",
"m  c #C89536",
"M  c #D3943B",
"N  c #D59D36",
"B  c #E19523",
"V  c #E49C24",
"C  c #E99D24",
"Z  c #E39D2C",
"A  c #DFA22B",
"S  c #DAA633",
"D  c #DFA63C",
"F  c #D7AF3E",
"G  c #D7A638",
"H  c #E6A225",
"J  c #EAA425",
"K  c #E5AB26",
"L  c #EDAB26",
"P  c #E6A32B",
"I  c #E9A52B",
"U  c #E5AA2A",
"Y  c #EDAB29",
"T  c #F4AB24",
"R  c #F1AE29",
"E  c #E0B02F",
"W  c #EEB72F",
"Q  c #E7BC26",
"!  c #F5B224",
"~  c #FABA24",
"^  c #F3B42B",
"/  c #F6BA2C",
"(  c #FBBC2C",
")  c #F8B627",
"_  c #E3AD34",
"`  c #EDAD32",
"'  c #E7A339",
"]  c #F2AE31",
"[  c #ECB333",
"{  c #E4BD36",
"}  c #E9B53C",
"|  c #ECBB3E",
" . c #E4BA3C",
".. c #F4BB33",
"X. c #F9BD31",
"o. c #F2BD3B",
"O. c #FEC01B",
"+. c #EAC82C",
"@. c #FEC325",
"#. c #FDC22D",
"$. c #FFC92A",
"%. c #E9C035",
"&. c #F5C433",
"*. c #FCC333",
"=. c #FFCA36",
"-. c #F5C33C",
";. c #FBC53A",
":. c #F7CA3D",
">. c #FFCD3B",
",. c #F6CE35",
"<. c #F2D33C",
"1. c #FFD33D",
"2. c #FFD738",
"3. c #FFE13A",
"4. c #CD9D40",
"5. c #C49740",
"6. c #D69E4D",
"7. c #CEA042",
"8. c #DBA54C",
"9. c #D9BD48",
"0. c #DAA558",
"q. c #DCB453",
"w. c #E3A442",
"e. c #E3AB48",
"r. c #ECB446",
"t. c #E5BC45",
"y. c #EFBD40",
"u. c #E6B84C",
"i. c #F2BD44",
"p. c #E0A751",
"a. c #E7BB59",
"s. c #D7BE68",
"d. c #E2AF64",
"f. c #E6BF69",
"g. c #F4BF64",
"h. c #E2BB74",
"j. c #DDC752",
"k. c #DFD55E",
"l. c #E7CE44",
"z. c #EDC14D",
"x. c #F4C343",
"c. c #FDCB44",
"v. c #F3C44A",
"b. c #F3CC4B",
"n. c #FCCD4B",
"m. c #F9C545",
"M. c #EFD344",
"N. c #FED443",
"B. c #FEDC44",
"V. c #FED54B",
"C. c #FFDB4A",
"Z. c #EDC250",
"A. c #E6CC59",
"S. c #F5CA59",
"D. c #FBD356",
"F. c #FFDB56",
"G. c #FBD25C",
"H. c #FEDC5B",
"J. c #FFE44D",
"K. c #FFE94B",
"L. c #FFE345",
"P. c #FFE05D",
"I. c #FBE657",
"U. c #FFFD5C",
"Y. c #DAC862",
"T. c #DDD06D",
"R. c #DDCA75",
"E. c #DFD77B",
"W. c #E5C364",
"Q. c #E3CF61",
"!. c #EBC767",
"~. c #FBCE61",
"^. c #F1C967",
"/. c #E0D36A",
"(. c #FAD563",
"). c #F7D860",
"_. c #FDDE6D",
"`. c #F9DA68",
"'. c #E3C375",
"]. c #E3CC75",
"[. c #E3CB7B",
"{. c #E9C57A",
"}. c #F4CB75",
"|. c #ECD27A",
" X c #F6D971",
".X c #FAD37F",
"XX c #FBD97A",
"oX c #F2D77B",
"OX c #EAE265",
"+X c #FFE265",
"@X c #FFE56B",
"#X c #FFED6D",
"$X c #FBEC66",
"%X c #FFFF69",
"&X c #F2F26D",
"*X c #FFE573",
"=X c #FFE877",
"-X c #FDE57D",
";X c #FFEB7E",
":X c #DDD48D",
">X c #DCD59C",
",X c #E5CC84",
"<X c #E3CE8F",
"1X c #EBD183",
"2X c #E1DC8F",
"3X c #F6DD83",
"4X c #F8DD8F",
"5X c #E8CD91",
"6X c #E7D096",
"7X c #E7D29D",
"8X c #F9DC96",
"9X c #F8DF9F",
"0X c #F6DA94",
"qX c #FAE383",
"wX c #FEEA84",
"eX c #F6E38F",
"rX c #FFEC8D",
"tX c #FAE387",
"yX c #FFF38C",
"uX c #FEEB92",
"iX c #FAE79A",
"pX c #FFF39C",
"aX c #FFFF9D",
"sX c #FFF294",
"dX c #E9D8A3",
"fX c #F2DEA4",
"gX c #FADEA7",
"hX c #E3E1AD",
"jX c #F9E4A5",
"kX c #FDEAA2",
"lX c #F2E3AE",
"zX c #F7EFA8",
"xX c #F5EAA2",
"cX c #FFF5A4",
"vX c #FFF9A2",
"bX c #ECE2B4",
"nX c #FBEEB6",
"mX c #F4E9BC",
"MX c #FFFEB0",
"NX c #FCF2BD",
"BX c #FDFEBB",
"VX c #F5EBC4",
"CX c #F8EEC7",
"ZX c #F4EDC9",
"AX c #FAF3CC",
"SX c #FFFDCC",
"DX c #FFFDC6",
"FX c #FCFBD6",
"GX c #F5F2DD",
"HX c #FDFDDB",
"JX c #F8F3D4",
"KX c #FEFEE3",
"LX c #FFFFEA",
"PX c #FEFFF6",
"IX c gray100",
"UX c None",
/* pixels */
"UXUXUXUXUXUXUXUXUXUXUXUX|.1X,X1X1X[.!.!.UXUXUXUXUXUXUXUXUXUXUXUX",
"UXUXUXUXUXUXUXUXUX|.fXdX2XE./.A.A.k.Q.Q.!.A.Z.UXUXUXUXUXUXUXUXUX",
"UXUXUXUXUXUXUX}.lX>XT.l.M.C.J.#X@XB.C.b.{ { t.b.v.UXUXUXUXUXUXUX",
"UXUXUXUXUXUXeXhXY.+.3.$XMX-XM.uX3X-.P._.1.,.W K z.}.UXUXUXUXUXUX",
"UXUXUXUXUXxX:XQ J.aX`.b.eXS.@.-...#.x.-./ c.V.*.t W.xXUXUXUXUXUX",
"UXUXUXUXiXR.Q 2.D.zX XO.i X.n.n.c.c...! ) o.v.[ ~ 8 '.CXUXUXUXUX",
"UXUXUX3XT.u #XqX;./ ! n.qXvXcXcXsXwX@XV.X.R J R kXiX; 5XfXUXUXUX",
"UXUX~.[.r $. X-X! p *XBXBXvXyX;X*X+XP.H.V...e I gXdX; : 9XW.UXUX",
"UXUX XE *.m...e ) sXBXsX;X*X+XH.V.N.1.=.=.>...P B l r.Z j  XUXUX",
"UXS.t.0 H.H.^ T wXvX=X@XH.V.N.1.=.*.#.*.#.X.#.^ < B wX(.# [ u.UX",
"UXZ.K ) o.[ w G.yXP.F.V.1.;.=.*.;.;.*.../ W ^ ^ C d _ A 1 3 y.UX",
"UXy.0 ..Y 0 ` @XF.N.>.@.rXFXx.~ _._.C.1.=.^ Y J I 3 & 3 Z % P UX",
"Z.} 6 D.D.B -.C.=.=.*.p sXBX} ! N.c.K A U ^ I V C f s ` ^ > k m ",
"f.e.q r.u.k *.=.*.*.&./ V.V.K R #.R a 6 j l l f k 2 d k 3 6 f n ",
",X8.q 6 & Z *.*.X.../ R X./ H L R l 6 J C f s > f d 2 9 l H 3 c ",
"7Xn w.FXd.< *./ ^ ^ R L ^ L l H V 2 2 V f f C l 1 s 3 P z C 6 c ",
"7XM w.CX0.; ) ^ R L I H P l d V f % 2 k 1 3 =.W % 2 6 L s l e m ",
"<X6.: > % z Y J Y H l C k s s B k f % & # I U.F , k V ) L ) ^ N ",
"'.0.@ i.i.d C H V l f f B 1 % f ^ &.P P | %XOXa T V H =.=.*.#.7.",
"q.r.% n.;.3 l V k 1 d k l $ % f -.J.$X$X&Xk.h J *.I ^ :...W N.5.",
"UXo.4 V 0 H V 3 f 1 > a $ s f f x N N S S V ! >.X.U N.c.o.-.n.UX",
"UX} 0 w R I J 6 s f f 1 f B B V C e T ) ( *.>.2.E | c.i.+XD.D UX",
"UX4.R J I 2 R ) s s f B V J Y R / X.*.*.=.1.L.{ u.=Xf < 3XD.O UX",
"UXUXS w / J ..*.) 2 C Y R ^ / *.*.=.1.1.C.K.%.q.rXuXg.1X3Xz UXUX",
"UXUXv Z ) 2.Z s *.:.U T @.=.>.>.N.N.J.J.<.9.[.kXZ z BXSX' X UXUX",
"UXUXUXv V <.o.f m.H.S.z.| %.&.,.<.<.l.j.s.6XDXnXg M HXg.O UXUXUX",
"UXUXUXUXM ` ).*X(.#.;.rXeX|.!.].[.].<XbXKX}.2 fXKXKX1Xd UXUXUXUX",
"UXUXUXUXUXD c.tXiXi.!.4X] ^.SXjXgXHX0Xa.CX{.5 VXPXXXx UXUXUXUXUX",
"UXUXUXUXUXUXG V.XXVXKXxX, p.JX3 4 GXf.+ lXIXGXnXG.m UXUXUXUXUXUX",
"UXUXUXUXUXUXUX- [ ~.8XAXJXLXKX{.h.PXHXbXZXNXrX .o UXUXUXUXUXUXUX",
"UXUXUXUXUXUXUXUXUXO d e..X0X9XmXNXkXkXvX XF * UXUXUXUXUXUXUXUXUX",
"UXUXUXUXUXUXUXUXUXUXUXUX  . c m b b - o UXUXUXUXUXUXUXUXUXUXUXUX"
};
