/* XPM */
static char *_651f2a0357f42f6a1109792d86b6a65[] = {
/* columns rows colors chars-per-pixel */
"16 16 209 2 ",
"   c #A57A3C",
".  c #A8783A",
"X  c #CF7814",
"o  c #B38137",
"O  c #BC8A35",
"+  c #BF8F36",
"@  c #B5853E",
"#  c #B0883B",
"$  c #B88E3D",
"%  c #CD821E",
"&  c #CE831E",
"*  c #D1811D",
"=  c #D0831C",
"-  c #D2821E",
";  c #D2861F",
":  c #DD8F1B",
">  c #D98A1E",
",  c #D88D1E",
"<  c #D88D1F",
"1  c #DB8C1F",
"2  c #DA8E1E",
"3  c #DD8D1E",
"4  c #DE931E",
"5  c #E2921C",
"6  c #E3971E",
"7  c #EBA11E",
"8  c #EDA61C",
"9  c #C5882D",
"0  c #D38820",
"q  c #D68C21",
"w  c #D88C20",
"e  c #D88D20",
"r  c #D08F2B",
"t  c #DB9122",
"y  c #DC9120",
"u  c #DE9021",
"i  c #C7973B",
"p  c #E09521",
"a  c #E09720",
"s  c #E19720",
"d  c #E19721",
"f  c #E19823",
"g  c #E29C23",
"h  c #E59F23",
"j  c #E39924",
"k  c #E19E32",
"l  c #DDA231",
"z  c #D9AA3C",
"x  c #E5A225",
"c  c #E7A227",
"v  c #E8A321",
"b  c #E8A025",
"n  c #E9A424",
"m  c #EFA921",
"M  c #ECA927",
"N  c #EEAC26",
"B  c #E7A429",
"V  c #E6A72D",
"C  c #ECA62D",
"Z  c #E4AA2C",
"A  c #EDAD2C",
"S  c #F2A922",
"D  c #F2AF24",
"F  c #F0AE29",
"G  c #F1AF2D",
"H  c #F1B221",
"J  c #F3B227",
"K  c #F9B922",
"L  c #F1B029",
"P  c #F4B42B",
"I  c #F7BB2D",
"U  c #F5BC2E",
"Y  c #FAB82B",
"T  c #FABE2A",
"R  c #F8BA2C",
"E  c #F8BC2C",
"W  c #E8A631",
"Q  c #E4A33B",
"!  c #E7A939",
"~  c #E4AC3D",
"^  c #EEB039",
"/  c #E9BC3E",
"(  c #EEBE3C",
")  c #F6BD33",
"_  c #F0B935",
"`  c #F3B835",
"'  c #F0BB35",
"]  c #F2BA36",
"[  c #F7BF35",
"{  c #FABF35",
"}  c #F8BF36",
"|  c #F3B939",
" . c #FFC12E",
".. c #FDC22F",
"X. c #FFCD2E",
"o. c #F6C333",
"O. c #F9C134",
"+. c #FFC337",
"@. c #FFCD32",
"#. c #FEC935",
"$. c #FBCF37",
"%. c #F1C13D",
"&. c #F5C13D",
"*. c #F5C33C",
"=. c #FAC23A",
"-. c #F9C438",
";. c #FAC53B",
":. c #FAC83A",
">. c #FECA38",
",. c #FECC3B",
"<. c #FAC93F",
"1. c #FFD233",
"2. c #FFD832",
"3. c #F8D53E",
"4. c #A68040",
"5. c #A78949",
"6. c #DB9F4F",
"7. c #D5A742",
"8. c #DAA742",
"9. c #D1A048",
"0. c #D1AB49",
"q. c #D4A948",
"w. c #DDAE5C",
"e. c #DAB65D",
"r. c #E2A648",
"t. c #E5AC4B",
"y. c #E3BC43",
"u. c #E0A653",
"i. c #E8B55C",
"p. c #C5A26D",
"a. c #D9AB62",
"s. c #D0AF68",
"d. c #D1B465",
"f. c #D6B766",
"g. c #DABE6B",
"h. c #CAB577",
"j. c #D8BA75",
"k. c #D9BB7B",
"l. c #DFC05C",
"z. c #EFC046",
"x. c #F3C142",
"c. c #F7C140",
"v. c #F3C247",
"b. c #F1CC47",
"n. c #FBCA44",
"m. c #F2C04B",
"M. c #F4CE4C",
"N. c #FCCE4E",
"B. c #FFD042",
"V. c #FFD444",
"C. c #F5D24E",
"Z. c #F4D34E",
"A. c #FCD048",
"S. c #FCD24C",
"D. c #FFD94C",
"F. c #E9CF55",
"G. c #F0CC53",
"H. c #FACE54",
"J. c #F2C85E",
"K. c #F4D550",
"L. c #FFD850",
"P. c #FFDE54",
"I. c #FAD15A",
"U. c #F4DD58",
"Y. c #F8DD5E",
"T. c #DDC66B",
"R. c #EEC664",
"E. c #F2C463",
"W. c #F0C165",
"Q. c #E8D16C",
"!. c #EDD56E",
"~. c #F0D966",
"^. c #FBD86C",
"/. c #FDDD6F",
"(. c #EDCD74",
"). c #E7D473",
"_. c #FAD474",
"`. c #FAD870",
"'. c #FBDC71",
"]. c #FADF76",
"[. c #F8D87B",
"{. c #F1E26E",
"}. c #FFE468",
"|. c #FFE86B",
" X c #FFEB6D",
".X c #EEE07E",
"XX c #FFE977",
"oX c #FFE87A",
"OX c #DCC280",
"+X c #EECE83",
"@X c #E9CF8D",
"#X c #F1C984",
"$X c #ECD281",
"%X c #EDCC91",
"&X c #EFE880",
"*X c #FFEF92",
"=X c #F7E698",
"-X c #FFF293",
";X c #F4D8A5",
":X c #F5DBAA",
">X c #FFEAA2",
",X c #FFECA5",
"<X c #FBE3A9",
"1X c #FFE7AF",
"2X c #FFFBA1",
"3X c #FFEFB4",
"4X c #FFFAB3",
"5X c #FFFFC6",
"6X c None",
/* pixels */
"6X6X6X6X6Xd.T.).Q.l.0.6X6X6X6X6X",
"6X6X6Xf..X&X{.K.C.C.M.&.q.6X6X6X",
"6X6Xg.~.Y.S.N.I.H.=.{ ) m.j.6X6X",
"6Xe.G.A.&.^.*X-XXXL.E ^ W.i.s.6X",
"6Xz.O.] '.2X}.D.,.>.#.L Q ! ~ 6X",
"7.] G v. XV./.n.V.:.I J f k j + ",
"8.B W ;.@...].x.O.Z x f 2 2 6 9 ",
"w.u.t.K R P H v 4 w 3 > 0 e : r ",
"a.6.r.8 M x u e 2 X C %.= x m l ",
"9.g B y u q & * _ y.F./ 7 U 1.z ",
"i F n 6 * & = u V ( ] T o.{ P.$ ",
"6XA D N f 5 S R T @.2.b.J._.E.6X",
"6Xo +.| ) c.n.$.3.U.!.+X#X,X. 6X",
"6X6XO |.XX`.R.(.$X@X%X<X5X@ 6X6X",
"6X6X6X# [.>X1X;X:X3X4X=X4.6X6X6X",
"6X6X6X6X6X  p.k.OXh.5.6X6X6X6X6X"
};
