/* XPM */
static char *_0671d4ae4d74d8facf4ca700f7bb0c5[] = {
/* columns rows colors chars-per-pixel */
"64 64 256 2 ",
"   c #A86915",
".  c #BC7419",
"X  c #BB7718",
"o  c #B96E10",
"O  c #9C743D",
"+  c #926C3E",
"@  c #AF7E36",
"#  c #A06114",
"$  c #C56C05",
"%  c #CA7706",
"&  c #D37904",
"*  c #CB7B14",
"=  c #C47B1B",
"-  c #CA7E1B",
";  c #C37816",
":  c #D27D16",
">  c #9C7744",
",  c #A27F4A",
"<  c #B98927",
"1  c #BB9536",
"2  c #B3882E",
"3  c #BB801B",
"4  c #D98608",
"5  c #C4841D",
"6  c #CC831D",
"7  c #CB8A1D",
"8  c #C88819",
"9  c #D38316",
"0  c #DC8B14",
"q  c #D4841C",
"w  c #D4891D",
"e  c #DB8C1D",
"r  c #D78815",
"t  c #C9951D",
"y  c #DC921E",
"u  c #D8991D",
"i  c #D78A06",
"p  c #E38D0C",
"a  c #E7950B",
"s  c #E18C18",
"d  c #E3951C",
"f  c #E69C1E",
"g  c #E79815",
"h  c #F19714",
"j  c #E7A31B",
"k  c #F6AB1B",
"l  c #FFBD1B",
"z  c #F8B41B",
"x  c #EEA40E",
"c  c #CB8924",
"v  c #C88523",
"b  c #D58A21",
"n  c #DA8D21",
"m  c #D48824",
"M  c #CD9223",
"N  c #CA9825",
"B  c #D59322",
"V  c #DD9222",
"C  c #DC9A24",
"Z  c #DC942A",
"A  c #D7972B",
"S  c #C49635",
"D  c #D99A36",
"F  c #E19623",
"G  c #E39B24",
"H  c #EA9E23",
"J  c #E49B2A",
"K  c #E39F37",
"L  c #C8A52C",
"P  c #DCA124",
"I  c #DCA62C",
"U  c #C9A738",
"Y  c #DAA436",
"T  c #D8B538",
"R  c #D5B52D",
"E  c #E6A225",
"W  c #EAA425",
"Q  c #ECAA26",
"!  c #E5A42B",
"~  c #EBA529",
"^  c #EDAB2A",
"/  c #E3AC2B",
"(  c #F2AD24",
")  c #F1AD2A",
"_  c #F1A727",
"`  c #EDB32B",
"'  c #EBB629",
"]  c #F4B325",
"[  c #FCBC25",
"{  c #F3B32B",
"}  c #F9B42C",
"|  c #F6BA2E",
" . c #FABC2D",
".. c #F8B526",
"X. c #E4AD34",
"o. c #E7A937",
"O. c #F3AA35",
"+. c #ECB333",
"@. c #EBB23A",
"#. c #E7B737",
"$. c #F6BC32",
"%. c #FABD31",
"&. c #F4B536",
"*. c #DEA01D",
"=. c #FEC324",
"-. c #FEC32C",
";. c #FDCB2D",
":. c #E4C83C",
">. c #FDC434",
",. c #FECA35",
"<. c #FBC53B",
"1. c #FECB3A",
"2. c #F4C23A",
"3. c #FFD334",
"4. c #FED33C",
"5. c #FFDA3D",
"6. c #FDD737",
"7. c #FFE33C",
"8. c #EFC42F",
"9. c #AA8448",
"0. c #B48B45",
"q. c #BA944B",
"w. c #B49155",
"e. c #C38F48",
"r. c #C4944C",
"t. c #C89B49",
"y. c #D69C46",
"u. c #C59C55",
"i. c #CBAD4B",
"p. c #C8A647",
"a. c #D8A648",
"s. c #D9B44D",
"d. c #C8A656",
"f. c #D6A856",
"g. c #D8B557",
"h. c #CBB558",
"j. c #E3AC4B",
"k. c #E3A843",
"l. c #E8B748",
"z. c #F4BA44",
"x. c #E3B45D",
"c. c #E8B955",
"v. c #EAB657",
"b. c #CCB366",
"n. c #D9B668",
"m. c #DCBB73",
"M. c #D8B877",
"N. c #C9AA6B",
"B. c #E6BC68",
"V. c #E2BC75",
"C. c #D2C558",
"Z. c #EBC847",
"A. c #F4C345",
"S. c #FBCB44",
"D. c #F3C44B",
"F. c #FCCD4C",
"G. c #F7C84A",
"H. c #FFD443",
"J. c #FEDB45",
"K. c #FED44B",
"L. c #FFDB4C",
"P. c #F5D747",
"I. c #EBC459",
"U. c #F3C453",
"Y. c #F7CA59",
"T. c #FCD454",
"R. c #FFDB53",
"E. c #FCD45D",
"W. c #FFDC5B",
"Q. c #F4D35B",
"!. c #EED648",
"~. c #FFE346",
"^. c #FFE34B",
"/. c #FDE84C",
"(. c #FFE453",
"). c #FFEC54",
"_. c #FFE35B",
"`. c #FFEC5B",
"'. c #FFF35B",
"]. c #FFF659",
"[. c #DBC572",
"{. c #E9C669",
"}. c #F6CC66",
"|. c #ECD065",
" X c #FEDC64",
".X c #FAD769",
"XX c #EAC978",
"oX c #F8D877",
"OX c #F0D072",
"+X c #FFE264",
"@X c #FEE36C",
"#X c #FFE968",
"$X c #FFF363",
"%X c #FEF46B",
"&X c #FFFB66",
"*X c #FEE473",
"=X c #FFEB73",
"-X c #FDE47B",
";X c #FFEB7C",
":X c #F7E172",
">X c #FFFA78",
",X c #EEE768",
"<X c #E1BF80",
"1X c #DCC789",
"2X c #DDC793",
"3X c #EBCB84",
"4X c #E5C989",
"5X c #EBD289",
"6X c #F8DA85",
"7X c #E3CC93",
"8X c #E7CE98",
"9X c #E8D498",
"0X c #F3D896",
"qX c #F0C981",
"wX c #FFEC84",
"eX c #FDE38B",
"rX c #FFEE8B",
"tX c #FAE285",
"yX c #FFF58A",
"uX c #FDED93",
"iX c #FBE898",
"pX c #FFF294",
"aX c #FEF39B",
"sX c #FFFA98",
"dX c #EEE19D",
"fX c #E7D5A4",
"gX c #EBDCB6",
"hX c #F3DEA3",
"jX c #EBE3A8",
"kX c #F9E6A8",
"lX c #FEF5A3",
"zX c #FFFCA3",
"xX c #FEF4AD",
"cX c #FFFCAB",
"vX c #F6F1AE",
"bX c #FBECB6",
"nX c #FFF3B4",
"mX c #FFFDB4",
"MX c #FEF3BC",
"NX c #FFFEBC",
"BX c #EDE2BA",
"VX c #EDE7C6",
"CX c #FFF5C2",
"ZX c #FFFEC4",
"AX c #FEFDCC",
"SX c #FBF4CD",
"DX c #FFFED3",
"FX c #FDFDDB",
"GX c #F6F3D3",
"HX c #F6EEC8",
"JX c #FEFFE4",
"KX c #FEFFEB",
"LX c #F6FCE0",
"PX c #FFFFF2",
"IX c #FFFFFD",
"UX c None",
/* pixels */
"UXUXUXUXUXUXUXUXUXUXUXUXUXUXUXUXUXUXUXUXUXUXUXUXUXUXUX}.OXoXoX6XoXoXoX}.Y.UXUXUXUXUXUXUXUXUXUXUXUXUXUXUXUXUXUXUXUXUXUXUXUXUXUXUX",
"UXUXUXUXUXUXUXUXUXUXUXUXUXUXUXUXUXUXUXUXUXUXUXoXkXNXDXFXDXAXZXNXmXNXmXmXmXcXuXtX}.UXUXUXUXUXUXUXUXUXUXUXUXUXUXUXUXUXUXUXUXUXUXUX",
"UXUXUXUXUXUXUXUXUXUXUXUXUXUXUXUXUXUXUXUXoXnXJXKXAXjX[.b.d.h.i.i.i.i.i.p.i.g.|.-XsXyX*X}.UXUXUXUXUXUXUXUXUXUXUXUXUXUXUXUXUXUXUXUX",
"UXUXUXUXUXUXUXUXUXUXUXUXUXUXUXUXUXUXeXDXPXAX1Xd.p.i.T T :.Z.!.!.!.!.Z.:.T R U U U Y T.>X=X}.UXUXUXUXUXUXUXUXUXUXUXUXUXUXUXUXUXUX",
"UXUXUXUXUXUXUXUXUXUXUXUXUXUXUXUXoXFXPXjXb.p.U T !.].&X'.`.`.~.+X X~.(.).`.).^.4.#.L L N #.`.*XY.UXUXUXUXUXUXUXUXUXUXUXUXUXUXUXUX",
"UXUXUXUXUXUXUXUXUXUXUXUXUXUXY.ZXKXjXd.1 R !.&X).=X,X6./.L._.(.pX6XL.L.H.4.@XW.L.R.~.4.R N t ' ).@XU.UXUXUXUXUXUXUXUXUXUXUXUXUXUX",
"UXUXUXUXUXUXUXUXUXUXUXUXUXeXJXAXN.1 R ).&X)./.6.rXxX;XOXS.Q.iXaXuXtXl.4.^.*X*X.Xl.>.1.5.4./ t t 1.%XOXUXUXUXUXUXUXUXUXUXUXUXUXUX",
"UXUXUXUXUXUXUXUXUXUXUXUXxXJX9X1 L /.].J.P./.Q.tXcXcXvXI.4.8.|.sXyXs.8.P.{..X_.T.>.,.>.1.G.;.,.P < #.>XeXUXUXUXUXUXUXUXUXUXUXUXUX",
"UXUXUXUXUXUXUXUXUXUX&.ZXDXM.< :.]._.wX_.@XQ.4.I.eXzXdXK.4.3. X{.I.l.3.<.X.S.T.l.#.2.1.K.S.2.F.1.' 5 a.sXxXk.UXUXUXUXUXUXUXUXUXUX",
"UXUXUXUXUXUXUXUXUXz.AXNXd.t ~.).H.5.lXmXdXl.7.;.:X[.Z.I.;.4.l.` 8.X.>.,.,.S.X.` | $.D.S.4.K.@.X.3.=.8 t.NXAXj.UXUXUXUXUXUXUXUXUX",
"UXUXUXUXUXUXUXUXz.NXmXp.t /./.6.P.tXcXsXaXT.6.4.Z.@.=.| -.=.l =.[ =.[  .>.{ { ,.>.>.W 2.L.G.^  .|  .[ 0 r.FXJXk.UXUXUXUXUXUXUXUX",
"UXUXUXUXUXUXUXUXmXmXt.N ~.3.3.S.G.g.:XuXOXI.$.1.=.l [ >.S.T. XE.E.T.F.1.%.[ [ | %. .>.D.@.l.l.] x &.c.l i u.PXLXD UXUXUXUXUXUXUX",
"UXUXUXUXUXUXUXaXcXp.t 7.+XW.+XXX-.=.S.{.W |  .l >.E.wXlXxXmXmXcXcXlXaXrX*XE.S.| ] { %.X.! _ E z.G.6X0Xg l & N.PXHXUXUXUXUXUXUXUX",
"UXUXUXUXUXUXoXmXg.8 5.;.T.aXzXOX-.,.>.+.-.l >.-XxXAXZXmXlXaXpXrXrXwX;X;X;X;X@XW.S.{ _ ) { { z o.hXZXCXbXx.k % M.KX0XUXUXUXUXUXUX",
"UXUXUXUXUXU.cX|.3 ;.1.-.W.pX;X-XI.%.>.l [ .XmXAXmXlXaXpXuXrXwXwX;X*X@X+X+XW.R.R.R.H.$._ _ ^ ^ a 6XIXFX<XC _ k o 5XDXx.UXUXUXUXUX",
"UXUXUXUXUXuX;X3 ' J.-.>.|.|.@Xl.X.%.z <.aXZXxXaXpXpXuXwXwX;X=X@X+X X_.W.L.K.K.H.1.H.H.1.^ E W +.8XV.gXk.a J W p < iXlXUXUXUXUXUX",
"UXUXUXUX}.yXU u 3.%.>.S.] ] l.X.-.z G.xXNXaXpXpXrXwX;X-X*X#X X XW.T.T.K.H.4.1.1.1.1.,.1.,.) G K V 4 D K p p J o.$ D sX{.UXUXUXUX",
"UXUXUXUXyXG.5 >.1.%.}.@.[ -.^ { z G.mXcXrXrXwX;X;X*X@X@X XW.R.T.K.H.H.1.1.1.,.,.>.>.>.>.>.>.^ d H H p ! U.k.XXD d . Z.>XUXUXUXUX",
"UXUXUX}.>XM u 1.U. X XS.<.$.%.z A.zXaXwXwX;X-X*X@X+XW.W.R.K.H.H.1.1.1.>.1.>.>.2.>.>.>.| %.%.-.! V G F e OXzX:XK H * v ).B.UXUXUX",
"UXUXUX*X2.5 >.[ +.W.(.K.l.^ k &.pXpX;X;X*X@X@X_.W.R.T.K.H.H.1.1.1.1.1.1.>.>.>.>.>.%.%.| | | | | G V V V .X#XW.T.A n X ] _.UXUXUX",
"UXUXU.%Xt B >.] G.Z.S.@.F ( _ *XyX*X@X@X XW.W.R.K.H.H.1.1.1.,.,.>.>.>.>.>. .%.%.| | { | { { ` { ^ n e K s.G.S.6 q F ; 8 ^.g.UXUX",
"UXUX.X4.5 { } { @.J / I ^ j G.yX@X+XW.W.R.K.K.H.1.=.=.=.,.,.<.>.-. . . .| $.| { ` ` ) ` ` ` ) _ ^ G n b * V A q F n n . z G.UXUX",
"UXUX`.P 7 %.) +.^ { ) V _ ^ @X#XW.W.T.K.H.4.1.-.T.nXvXMX|.l >. ..XwX+X XT.K.S.<.>.>.| ) ^ Q ^ W ^ E n n n b : m : n F . 0 K.t.UX",
"UXc.`.M e ..W z.^ f _ ) G A.#XT.L.K.H.H.1.1.1.l .XIXKXKXn.z >...-XyX*X_.R.J.H.1.,.>.>.| ^ W W W E W V q e b F ) Z k.Z ; 8 1.a.UX",
"UXE.K.c f +.G.K.<.U.o.d ! K.L.H.1.1.1.1.,.,.<.l Q.ZXzXlXl.(  .{ K.L.4.1.,.<.>.8.>.>.{ { ` W W G G H V 6 n q n $.%.! - n ; j c.UX",
"UX@XD.v _ K D.L.+Xc.A d +.L.H.1.1.1.1.>.>.>.>...F.zXrX;XT ( | { 2.1.,.| 5 5 8 7 8 B ( ^ W E G G G C G m e b k.` k _ F F = 0 z.UX",
"UX;Xs.= ) 0 z.*XtXj.p V $.4.,.,.,.<.>.>.>.>.>...A.=X+XR.I ^ ` ^ -.>.,.! 7 W C G B 6 B W G G b C F V G w q Z m y W w 6 F 6 % z.UX",
"c.zXp.* _ f c.y.K f.e G <.1.<.>.>.>.>.%.>.| | ] <.L.H.1.P _ ) ^ | |  .P B ) W E W _ V V V F w b G V V w q F e V 6 6 e G w X O.r.",
"x.NXt.% ~ J : 0 d q n J ,.>.>.>.>.%.| | | | | ` | 1.>.>.C W ^ Q ` ` ` C w _ G G G G C V n n w 6 F n V m 6 F V y w F F G y ; K t.",
"{.AXr.* G J v.p 4 G n J ,.>.%.>.%.| | | { | { ^ { >.>.| u E W W _ _ _ b 7 W G C G V F V m e m = n n e m - f d G J f W ~ G 8 F t.",
"XXJXr.& 4 4 bX5XqXy.: ~ >.%.| | { | { { { ` ^ ^ `  .| ` M E W E G G G 7 m H F V V V V n n n G 6 q n n b 6 C f W J n K A W 8 n t.",
"4XKXe.& y.kXDXPXfX* r ~ >.| | { { ` ` ) ` _ ^ W _ ` ^ Q c G G G G V F 6 6 G V V V n n V G _ | b 6 n n n 6 d ! k.Z n 6 e ..q n y.",
"3XPXe.& D 8XSXJXhXr 9 !  .{ { ` ` ^ ^ ^ _ ~ W ~ E ^ W J 6 F G F V n V - - F V n n n b F | | ,.B - n n n 6 j ! m q F c W ..B F t.",
"3XKXe.: & : kXM.n.y.: G | ` ) ^ _ Q W W ^ W E E G E G n 6 F F F n b V - 6 Z n n n n q H ,.1.J.c q n V V 8 E ( ] Z w u C ..u ! a.",
"V.JXr.$ F Z D % & q m F ` ) ^ Q Q ^ ^ E C G H G G V V n = C F n n n F 6 - F n n n n : { J.J.P.5 n V F F 7 ( ) ..G E ..( ] V &.t.",
"n.DXr.$ n n q : : e n y ^ _ W W E ^ Q G 7 G G G V V n w ; V F n V G _ C - n n n b : n P.L.&Xs.X H G ~ V 7 ....{ {  ... .| C S.t.",
"f.NXd.$ F q v.l.o.j.m e W W E E E G G G n F F F V b n 6 ; Z n n H { >.! ; b q : q V S.'.`.>X2 : _ ~ { V 7 -.z %.@.(  .-.] u L.q.",
"UXzXx.o F % @.=X@XK * V G W E G G V V V Z n n n b b H - . F b q ) >.,.>.+.&.$.A.S._.$X+X>Xs.. } ~ ) %.B *.>.A.S.<.1.A.>.` E _.UX",
"UX-XU.X s K Q.L.H.>.F e F G G G G V b V n q b b F ) ) # : F n q $.J.H.J./.).$X$X&X%X&X>XC.  _ } { | %.B ( %.@.>.3.<.X.>.`  .R.UX",
"UX}._.v r D Y ;.$.! C F F C V F V V - - F H _ } } P # . F b n q <.].`.'.%X%X>X%X>X,XC.1   E %.| | >.+.c ,.;.2.1.$.` %.5.X.,.I.UX",
"UXs.'.M 6 g r E B r F f H V V V n G n X . = v 8 . # = F n n n n A 2 S < 1 S 1 1 < < X w  .>.| %.>.5.N C 4.,.H.X.X.I #.H.X.^.t.UX",
"UXUX_.*.; _ G V y f G ~ j E n V n n n F 6 = . . ; n F m n F F G w - q e e e s d f ( -.,.%.>.>.>.1.8.c 1.1.1.A.A.J.F.F.U.Q L.9.UX",
"UXUXY.=.5 f W f ^ ^ &.Y f ( V b V n b n n F F F F n n V F F F J G _ _ ) ) } } %.%.%.%.>.>.,.1.,.~.N D ^.R.W.z.T.T.T.#Xl.] c.UXUX",
"UXUXf.J.8 e ( W W +.{ y ] ..Q q b n n n n n n n V V F F F G H ! ^ ) ) ` } | %.%.%.>.>.1.,.1.1.~.#.< (.G.z.G.H E.@X X.XY >.t.UXUX",
"UXUXUXT.x 8 ..( $.~ f G A Q  .E 6 n n n n n V F G G G G ! _ ^ ) ) | } | %.>.>.>.1.,.1.1.4.H.~.P.< D.#XQ.o.g W e j.yXOXs G.UXUXUX",
"UXUXUXf.-.; *. .Y w y e V ` [ =.V q V V V F F J G J ~ ^ ^ ) { } | | %.>.>.1.,.1.1.1.H.H.H.L.^.< s.=X.XwXl.& 4 y.oXaXy.k t.UXUXUX",
"UXUXUXUXF.i w -.E Q 6 C ;.=.$.<.-.m n G G G J W _ ^ ) } { | | %.%.>.>.1.1.1.1.4.H.H.H.H.(./.< i.yX.XwX-Xj.x.= x.NX3X& z.O UXUXUX",
"UXUXUXUXf.{ ; Q ;.;.Q ^ ,.4.o.! 3.;.B n _ ~ _ ) { O.| | %.%.>.>.<.1.1.1.1.H.H.H.L.L.L.'./.< d.yXeXlXeXXXaXmX3X3XNXS h f.UXUXUXUX",
"UXUXUXUXUXv.0 6 ;.%.;.>.K o.v J S.1.2.P V { | { | | %.>.>.>.1.1.1.4.4.H.H.L.P.L.L.`.].:.2 b.zXeXk.}.m V.NXiXxXDXV.& v.UXUXUXUXUX",
"UXUXUXUXUXu.z.$ C 4.>.,.! q F n A 2.4.H.T C Q >.>.>.>.1.>.1.1.4.H.H.H.P.L.L.L.).&X!.L 0.4XzXiXNXv.$ & j.kXbXAXjX$ _ w.UXUXUXUXUX",
"UXUXUXUXUXUXf.J o ` 5.1.S.m e G 2.K.F.T.R.Z.Y I ' 3.4.4.4.H.H.H.H.L.L.(.(.'.$X!.U 1 N.MXmXiXnXhXm & b * V.FXSXm p f.UXUXUXUXUXUX",
"UXUXUXUXUXUXUXx.s X 2./.l.o.X.I T.R.E.A.E.=X*XI.p.Y R ' 6.5./.^./.)././.Z.T U q.N.jXmXiXCXDXMX4XM.a.w gXDXJXt.& B.UXUXUXUXUXUXUX",
"UXUXUXUXUXUXUX@ v.p 3 Y.W.W._.U.Y. XW.-.H.c.}.;XrX5Xn.g.h.p.U U U U p.d.d.N.2XbXZXnXCXa.c.{.M.DXPXbXM.JXKXf.& U.O UXUXUXUXUXUXUX",
"UXUXUXUXUXUXUXUX0.Y.g v |.#X X@XoXc. .3. .c.tXeX.XrXNXmXiX0X4X7X9X1X8XkXCXZXDXCXMXSXAXk.& % fXJXCXSXJXKXN.& Y., UXUXUXUXUXUXUXUX",
"UXUXUXUXUXUXUXUXUX9.E.k M {.rX-XtXtX<.k j OXlXnXY.z.6XB.kXxXMXnXnXZXMXMXDXqXx.KXCXHXn.r / u c.SXSXKXKXf.i Y.9.UXUXUXUXUXUXUXUXUX",
"UXUXUXUXUXUXUXUXUXUX9. X;.C m.iXuXuXl.B.B.{.xXeX&.g 4 V.NXMXPXB.f.PXDXMXFXB.& k.n.HXVX5X*.m.1XVXIXVXS g .X, UXUXUXUXUXUXUXUXUXUX",
"UXUXUXUXUXUXUXUXUXUXUXO .X7.j g.jXmXhXnXnXnXhXf.s p $ qXJX3Xx.Z 9 j.8XGXf.r ~ 4 fXKXJXDXm.GXIXPX2XM  .oX+ UXUXUXUXUXUXUXUXUXUXUX",
"UXUXUXUXUXUXUXUXUXUXUXUXUXB.].l Y 1XZXAXnXbXnXFXj.& f.f.GXgXq 4 r v gXLXgXj.*.M XXJXDXSXKXIXgXf.j L.m.UXUXUXUXUXUXUXUXUXUXUXUXUX",
"UXUXUXUXUXUXUXUXUXUXUXUXUXUXw._.6.x a.fXGXJXAXFXqXM.IXSXCXIX5X$ % V.IXAXIXXXn.gX1XDXPXKXVXm.P 1.+Xw.UXUXUXUXUXUXUXUXUXUXUXUXUXUX",
"UXUXUXUXUXUXUXUXUXUXUXUXUXUXUXUXd.R.l p a.1XVXKXPXPXFXDXSXFXV.7XfXn.SXFXDXbXJXIXIXGXfXn.I ;.#Xb.UXUXUXUXUXUXUXUXUXUXUXUXUXUXUXUX",
"UXUXUXUXUXUXUXUXUXUXUXUXUXUXUXUXUX> f.G.z & w f.2XBXGXJXPXKXPXIXIXPXKXKXLXLXVXfXM.s.' P.@Xb.> UXUXUXUXUXUXUXUXUXUXUXUXUXUXUXUXUX",
"UXUXUXUXUXUXUXUXUXUXUXUXUXUXUXUXUXUXUXUXr.j.O.h & : m t.n.<X7X7X7X7X1Xm.g.a.T ' 4.+X|.u.+ UXUXUXUXUXUXUXUXUXUXUXUXUXUXUXUXUXUXUX",
"UXUXUXUXUXUXUXUXUXUXUXUXUXUXUXUXUXUXUXUXUXUX> q.y.K K H d g d f E Q ` $.S.T.Q.B.d.> UXUXUXUXUXUXUXUXUXUXUXUXUXUXUXUXUXUXUXUXUXUX",
"UXUXUXUXUXUXUXUXUXUXUXUXUXUXUXUXUXUXUXUXUXUXUXUXUXUXO 9.0.q.t.t.d.d.u.q.9.> UXUXUXUXUXUXUXUXUXUXUXUXUXUXUXUXUXUXUXUXUXUXUXUXUXUX"
};
